<svg width="93" height="92" xmlns="http://www.w3.org/2000/svg" xmlns:xlink="http://www.w3.org/1999/xlink" xml:space="preserve" overflow="hidden"><defs><clipPath id="clip0"><rect x="-256" y="883" width="93" height="92"/></clipPath></defs><g clip-path="url(#clip0)" transform="translate(256 -883)"><path d="M-209.622 935.78-202.458 942.917-206.04 942.917-206.04 950.054-213.205 950.054-213.205 942.917-216.787 942.917ZM-225.9 923.251C-229.611 923.33-233.416 925.397-235.952 929.848-241.339 938.045-245.598 954.297-243.468 965.249-236.234 970.752-229 969.438-223.403 957.899L-222.513 955.734-217.682 958.226C-215.097 959.063-212.254 959.525-209.271 959.525-206.288 959.525-203.445 959.063-200.86 958.226L-196.963 956.215-196.271 957.899C-190.673 969.438-183.439 970.752-176.205 965.249-174.076 954.297-178.335 938.045-183.721 929.848-186.258 925.397-190.063 923.33-193.774 923.251-196.557 923.191-199.287 924.249-201.39 926.258L-202.32 927.409-204.916 926.793C-206.323 926.572-207.779 926.457-209.271 926.457-210.763 926.457-212.219 926.572-213.626 926.793L-217.171 927.635-218.283 926.258C-220.386 924.249-223.117 923.191-225.9 923.251ZM-239.106 913.93-234.633 917.333C-232.926 918.148-231.048 918.598-229.078 918.598-227.107 918.598-225.23 918.148-223.522 917.333L-219.221 914.061-214.92 917.333C-213.213 918.148-211.335 918.598-209.365 918.598-207.394 918.598-205.517 918.148-203.81 917.333L-199.423 913.996-195.036 917.333C-193.328 918.148-191.451 918.598-189.48 918.598-187.51 918.598-185.633 918.148-183.925 917.333L-179.859 914.24-175.495 917.56C-174.641 917.968-173.745 918.284-172.816 918.498L-171.316 918.669-171.316 959.938C-171.316 968.256-177.293 975-184.667 975L-234.063 975C-241.437 975-247.414 968.256-247.414 959.938L-247.414 918.235-246 918.074C-245.071 917.86-244.175 917.544-243.321 917.136ZM-242.102 883-176.389 883C-171.739 889.424-163.143 896.696-163.003 902.272-162.863 907.848-167.256 912.937-169.939 913.7-172.622 914.463-177.591 910.876-179.1 906.85L-179.563 904.262-179.897 904.262-180.319 906.622C-181.829 910.648-185.362 913.473-189.48 913.473-193.598 913.473-197.132 910.648-198.641 906.622L-199.064 904.262-199.781 904.262-200.204 906.622C-201.713 910.648-205.247 913.473-209.365 913.473-213.483 913.473-217.016 910.648-218.526 906.622L-218.948 904.262-219.494 904.262-219.917 906.622C-221.426 910.648-224.959 913.473-229.078 913.473-233.196 913.473-236.729 910.648-238.238 906.622L-238.661 904.262-239.328 904.262-239.715 906.426C-241.225 910.452-246.162 913.863-248.876 913.276-251.59 912.69-256 909.102-256 902.908-254.871 897.862-248.261 890.028-242.102 883Z" fill-rule="evenodd"/></g></svg>